<svg width="24" height="24" viewBox="0 0 24 24" fill="none" xmlns="http://www.w3.org/2000/svg">
<path d="M12 0C18.6274 0 24 5.37258 24 12C24 18.6274 18.6274 24 12 24C5.37258 24 0 18.6274 0 12C0 5.37258 5.37258 0 12 0ZM7.78223 6.40039C7.58423 6.40039 7.26223 6.47446 6.99023 6.77246C6.71815 7.07053 5.9502 7.78817 5.9502 9.25098C5.9502 10.7027 6.99836 12.1053 7.15918 12.3203L7.16309 12.3252C7.31319 12.5249 9.25922 15.5249 12.2393 16.8115C12.9481 17.1175 13.5017 17.3015 13.9326 17.4385C14.6445 17.6644 15.2927 17.6316 15.8047 17.5557C16.3757 17.4707 17.5625 16.8366 17.8105 16.1426C18.0585 15.4477 18.0594 14.8525 17.9844 14.7285C17.9103 14.6046 17.7119 14.5308 17.4141 14.3818C17.1171 14.2328 15.6558 13.514 15.3828 13.415C15.1109 13.3161 14.9128 13.2665 14.7139 13.5645C14.5157 13.8616 13.9454 14.5305 13.7725 14.7285C13.5995 14.9265 13.4259 14.9517 13.1289 14.8027C12.8318 14.6537 11.874 14.3408 10.7393 13.3281C9.85626 12.5401 9.25894 11.5666 9.08594 11.2686C8.91329 10.9718 9.06791 10.811 9.21582 10.6631C9.34982 10.5301 9.51311 10.3156 9.66211 10.1416C9.8128 9.96987 9.8621 9.84612 9.96191 9.64746C10.0609 9.44946 10.0115 9.27498 9.93652 9.12598C9.86112 8.97693 9.2674 7.51467 9.02051 6.91992C8.77854 6.34116 8.53354 6.41916 8.35156 6.41016L7.78223 6.40039Z" fill="white"/>
</svg>
