<svg width="24" height="24" viewBox="0 0 24 24" fill="none" xmlns="http://www.w3.org/2000/svg">
<path d="M12.0498 0C15.2459 0.000999987 18.2462 1.24034 20.5029 3.48828C22.7586 5.73628 24.001 8.72434 24 11.9023C23.9968 18.4592 18.636 23.7939 12.0498 23.7939C10.0505 23.7929 8.08012 23.2936 6.33496 22.3457L0 24L1.69531 17.8369C0.649344 16.0329 0.0995812 13.9876 0.100586 11.8906C0.103804 5.33494 5.46384 0.000233709 12.0498 0ZM7.78223 6.40039C7.58423 6.40039 7.26223 6.47446 6.99023 6.77246C6.71812 7.07054 5.9502 7.78822 5.9502 9.25098C5.9502 10.7026 6.99829 12.1052 7.15918 12.3203L7.16309 12.3252C7.31302 12.5247 9.25907 15.5249 12.2393 16.8115C12.9481 17.1175 13.5017 17.3015 13.9326 17.4385C14.6445 17.6644 15.2927 17.6316 15.8047 17.5557C16.3757 17.4707 17.5625 16.8366 17.8105 16.1426C18.0585 15.4477 18.0594 14.8525 17.9844 14.7285C17.9103 14.6046 17.7119 14.5308 17.4141 14.3818C17.1171 14.2328 15.6558 13.514 15.3828 13.415C15.1109 13.3161 14.9128 13.2665 14.7139 13.5645C14.5158 13.8614 13.9469 14.53 13.7734 14.7285C13.6004 14.9265 13.4259 14.9517 13.1289 14.8027C12.8317 14.6537 11.8739 14.3408 10.7393 13.3281C9.85626 12.5401 9.25894 11.5666 9.08594 11.2686C8.91333 10.9719 9.06792 10.811 9.21582 10.6631C9.34982 10.5301 9.51311 10.3156 9.66211 10.1416C9.81282 9.96986 9.8621 9.84612 9.96191 9.64746C10.0609 9.44946 10.0115 9.27498 9.93652 9.12598C9.86107 8.9768 9.26839 7.5147 9.02148 6.91992C8.77948 6.34092 8.53356 6.41916 8.35156 6.41016L7.78223 6.40039Z" fill="white"/>
</svg>
